<svg width="500" height="500" viewBox="0 0 500 500" fill="none" xmlns="http://www.w3.org/2000/svg">
<path fill-rule="evenodd" clip-rule="evenodd" d="M203.212 324.561H297.002C303.242 346.154 317.604 364.52 337.108 375.781C357.108 387.328 380.876 390.457 403.183 384.48C403.199 384.475 403.216 384.471 403.232 384.466C425.539 378.489 444.558 363.895 456.105 343.895C467.652 323.896 470.781 300.128 464.804 277.821C456.755 247.782 447.371 212.76 439.322 182.721C433.345 160.415 418.752 141.395 398.752 129.849C378.752 118.302 354.984 115.173 332.677 121.15C332.66 121.154 332.644 121.159 332.627 121.163C319.794 124.602 308.048 130.893 298.188 139.424C298.194 139.419 202.02 139.419 202.02 139.419C192.172 130.895 180.424 124.603 167.587 121.163C167.571 121.159 167.554 121.154 167.538 121.15C145.231 115.173 121.463 118.302 101.463 129.849C81.4634 141.395 66.8699 160.415 60.8928 182.721C52.8437 212.76 43.4597 247.782 35.4106 277.821C29.4335 300.128 32.5626 323.896 44.1094 343.895C55.6566 363.895 74.6753 378.489 96.9821 384.466C96.999 384.471 97.0153 384.475 97.0322 384.48C119.339 390.457 143.107 387.328 163.107 375.781C182.61 364.52 196.973 346.154 203.212 324.561ZM322.383 306.418C319.057 295.005 308.414 295.327 308.196 295.328C249.645 295.511 192.019 295.328 192.019 295.328C184.445 295.51 179.39 300.528 177.832 306.418C176.839 310.169 176.259 312.279 175.497 315.132C174.268 319.732 174.264 319.731 175.441 315.342C171.47 330.16 161.775 342.794 148.49 350.464C135.205 358.134 119.416 360.213 104.598 356.242L104.548 356.229C89.73 352.259 77.0963 342.565 69.426 329.279C61.7558 315.994 59.6772 300.205 63.6477 285.387C71.6964 255.348 81.0804 220.326 89.1295 190.287C93.1 175.469 102.794 162.836 116.08 155.165C129.365 147.495 145.154 145.416 159.971 149.387L160.021 149.4C169.914 152.051 178.833 157.252 185.951 164.371C188.693 167.112 192.41 168.652 196.287 168.652H303.928C307.804 168.652 311.522 167.112 314.263 164.371C321.382 157.252 330.301 152.051 340.193 149.4L340.243 149.387C355.061 145.416 370.85 147.495 384.135 155.165C397.42 162.836 407.115 175.469 411.086 190.287C419.134 220.326 428.518 255.348 436.567 285.387C440.538 300.205 438.459 315.994 430.789 329.279C423.118 342.565 410.484 352.259 395.666 356.229L395.616 356.242C380.798 360.213 365.01 358.134 351.724 350.464C338.57 342.869 328.936 330.409 324.893 315.779L322.383 306.418ZM203.126 324.561H203.119L203.079 324.668L202.774 325.367C202.899 325.104 203.017 324.835 203.126 324.561ZM133.176 215.521H118.664C110.597 215.521 104.048 222.07 104.048 230.137C104.048 238.204 110.597 244.754 118.664 244.754H133.176V259.265C133.176 267.332 139.725 273.882 147.792 273.882C155.859 273.882 162.409 267.332 162.409 259.265V244.754H176.92C184.987 244.754 191.536 238.204 191.536 230.137C191.536 222.07 184.987 215.521 176.92 215.521H162.409V201.009C162.409 192.942 155.859 186.393 147.792 186.393C139.725 186.393 133.176 192.942 133.176 201.009V215.521Z" fill="black"/>
<path fill-rule="evenodd" clip-rule="evenodd" d="M337.059 258.412C337.059 249.875 343.99 242.943 352.528 242.943C361.066 242.943 367.997 249.875 367.997 258.412C367.997 266.95 361.066 273.882 352.528 273.882C343.99 273.882 337.059 266.95 337.059 258.412ZM380.803 214.668C389.341 214.668 396.272 221.599 396.272 230.137C396.272 238.675 389.341 245.606 380.803 245.606C372.265 245.606 365.334 238.675 365.334 230.137C365.334 221.599 372.265 214.668 380.803 214.668ZM324.253 214.668C332.79 214.668 339.722 221.599 339.722 230.137C339.722 238.675 332.79 245.606 324.253 245.606C315.715 245.606 308.783 238.675 308.783 230.137C308.783 221.599 315.715 214.668 324.253 214.668ZM337.059 201.862C337.059 193.324 343.99 186.393 352.528 186.393C361.066 186.393 367.997 193.324 367.997 201.862C367.997 210.4 361.066 217.331 352.528 217.331C343.99 217.331 337.059 210.4 337.059 201.862Z" fill="black"/>
</svg>
